HIERARCHY
ROOT hip
{
  OFFSET 0.0 0.0 0.0
  CHANNELS 6 Xposition Yposition Zposition Zrotation Yrotation Xrotation
  JOINT abdomen
  {
    OFFSET 0.0 20.6881 -0.73152
    CHANNELS 3 Zrotation Xrotation Yrotation
    JOINT chest
    {
      OFFSET 0.0 11.7043 -0.48768
      CHANNELS 3 Zrotation Xrotation Yrotation
      JOINT neck
      {
        OFFSET 0.0 22.1894 -2.19456
        CHANNELS 3 Zrotation Xrotation Yrotation
        JOINT head
        {
          OFFSET -0.24384 7.07133 1.2192
          CHANNELS 3 Zrotation Xrotation Yrotation
          JOINT leftEye
          {
            OFFSET 4.14528 8.04674 8.04672
            CHANNELS 3 Zrotation Xrotation Yrotation
            End Site
            {
              OFFSET 1.0 0.0 0.0
            }
          }
          JOINT rightEye
          {
            OFFSET -3.6576 8.04674 8.04672
            CHANNELS 3 Zrotation Xrotation Yrotation
            End Site
            {
              OFFSET 1.0 0.0 0.0
            }
          }
        }
      }
      JOINT rCollar
      {
        OFFSET -2.68224 19.2634 -4.8768
        CHANNELS 3 Zrotation Xrotation Yrotation
        JOINT rShldr
        {
          OFFSET -8.77824 -1.95073 1.46304
          CHANNELS 3 Zrotation Xrotation Yrotation
          JOINT rForeArm
          {
            OFFSET -28.1742 -1.7115 0.48768
            CHANNELS 3 Zrotation Xrotation Yrotation
            JOINT rHand
            {
              OFFSET -22.5879 0.773209 7.07136
              CHANNELS 3 Zrotation Xrotation Yrotation
              JOINT rThumb1
              {
                OFFSET -1.2192 -0.487915 3.41376
                CHANNELS 3 Zrotation Xrotation Yrotation
                JOINT rThumb2
                {
                  OFFSET -3.37035 -0.52449 3.41376
                  CHANNELS 3 Zrotation Xrotation Yrotation
                  End Site
                  {
                    OFFSET -1.78271 -1.18214 1.43049
                  }
                }
              }
              JOINT rIndex1
              {
                OFFSET -7.75947 0.938293 5.60832
                CHANNELS 3 Zrotation Xrotation Yrotation
                JOINT rIndex2
                {
                  OFFSET -2.54057 -0.884171 1.56538
                  CHANNELS 3 Zrotation Xrotation Yrotation
                  End Site
                  {
                    OFFSET -1.62519 -0.234802 1.16502
                  }
                }
              }
              JOINT rMid1
              {
                OFFSET -8.24714 1.18213 3.41376
                CHANNELS 3 Zrotation Xrotation Yrotation
                JOINT rMid2
                {
                  OFFSET -3.10165 -0.590103 1.0647
                  CHANNELS 3 Zrotation Xrotation Yrotation
                  End Site
                  {
                    OFFSET -2.48547 -0.328903 0.83742
                  }
                }
              }
              JOINT rRing1
              {
                OFFSET -8.82822 0.546677 1.51678
                CHANNELS 3 Zrotation Xrotation Yrotation
                JOINT rRing2
                {
                  OFFSET -2.60934 -0.819778 -0.0198488
                  CHANNELS 3 Zrotation Xrotation Yrotation
                  End Site
                  {
                    OFFSET -2.33842 -0.294052 0.168128
                  }
                }
              }
              JOINT rPinky1
              {
                OFFSET -8.27202 -0.0477905 -0.4584
                CHANNELS 3 Zrotation Xrotation Yrotation
                JOINT rPinky2
                {
                  OFFSET -1.82734 -0.647385 -0.700984
                  CHANNELS 3 Zrotation Xrotation Yrotation
                  End Site
                  {
                    OFFSET -1.69225 -0.51767 -0.607171
                  }
                }
              }
            }
          }
        }
      }
      JOINT lCollar
      {
        OFFSET 2.68224 19.2634 -4.8768
        CHANNELS 3 Zrotation Xrotation Yrotation
        JOINT lShldr
        {
          OFFSET 8.77824 -1.95073 1.46304
          CHANNELS 3 Zrotation Xrotation Yrotation
          JOINT lForeArm
          {
            OFFSET 28.1742 -1.7115 0.48768
            CHANNELS 3 Zrotation Xrotation Yrotation
            JOINT lHand
            {
              OFFSET 22.5879 0.773209 7.07136
              CHANNELS 3 Zrotation Xrotation Yrotation
              JOINT lThumb1
              {
                OFFSET 1.2192 -0.487915 3.41376
                CHANNELS 3 Zrotation Xrotation Yrotation
                JOINT lThumb2
                {
                  OFFSET 3.37035 -0.52449 3.41376
                  CHANNELS 3 Zrotation Xrotation Yrotation
                  End Site
                  {
                    OFFSET 1.78271 -1.18214 1.43049
                  }
                }
              }
              JOINT lIndex1
              {
                OFFSET 7.75947 0.938293 5.60832
                CHANNELS 3 Zrotation Xrotation Yrotation
                JOINT lIndex2
                {
                  OFFSET 2.54057 -0.884171 1.56538
                  CHANNELS 3 Zrotation Xrotation Yrotation
                  End Site
                  {
                    OFFSET 1.62519 -0.234802 1.16502
                  }
                }
              }
              JOINT lMid1
              {
                OFFSET 8.24714 1.18213 3.41376
                CHANNELS 3 Zrotation Xrotation Yrotation
                JOINT lMid2
                {
                  OFFSET 3.10165 -0.590103 1.0647
                  CHANNELS 3 Zrotation Xrotation Yrotation
                  End Site
                  {
                    OFFSET 2.48547 -0.328903 0.83742
                  }
                }
              }
              JOINT lRing1
              {
                OFFSET 8.82822 0.546677 1.51678
                CHANNELS 3 Zrotation Xrotation Yrotation
                JOINT lRing2
                {
                  OFFSET 2.60934 -0.819778 -0.0198488
                  CHANNELS 3 Zrotation Xrotation Yrotation
                  End Site
                  {
                    OFFSET 2.33842 -0.294052 0.168128
                  }
                }
              }
              JOINT lPinky1
              {
                OFFSET 8.27202 -0.0477905 -0.4584
                CHANNELS 3 Zrotation Xrotation Yrotation
                JOINT lPinky2
                {
                  OFFSET 1.82734 -0.647385 -0.700984
                  CHANNELS 3 Zrotation Xrotation Yrotation
                  End Site
                  {
                    OFFSET 1.69225 -0.51767 -0.607171
                  }
                }
              }
            }
          }
        }
      }
    }
  }
  JOINT rButtock
  {
    OFFSET -8.77824 4.35084 1.2192
    CHANNELS 3 Zrotation Xrotation Yrotation
    JOINT rThigh
    {
      OFFSET 0.0 -1.70687 -2.19456
      CHANNELS 3 Zrotation Xrotation Yrotation
      JOINT rShin
      {
        OFFSET 0.0 -36.8199 0.73152
        CHANNELS 3 Zrotation Xrotation Yrotation
        JOINT rFoot
        {
          OFFSET 0.73152 -45.1104 -5.12064
          CHANNELS 3 Zrotation Xrotation Yrotation
          End Site
          {
            OFFSET -1.1221 -3.69964 12.103
          }
        }
      }
    }
  }
  JOINT lButtock
  {
    OFFSET 8.77824 4.35084 1.2192
    CHANNELS 3 Zrotation Xrotation Yrotation
    JOINT lThigh
    {
      OFFSET 0.0 -1.70687 -2.19456
      CHANNELS 3 Zrotation Xrotation Yrotation
      JOINT lShin
      {
        OFFSET 0.0 -36.8199 0.73152
        CHANNELS 3 Zrotation Xrotation Yrotation
        JOINT lFoot
        {
          OFFSET -0.73152 -45.1104 -5.12064
          CHANNELS 3 Zrotation Xrotation Yrotation
          End Site
          {
            OFFSET 1.1221 -3.69964 12.103
          }
        }
      }
    }
  }
}
MOTION
Frames: 8
Frame Time: 0.00833333
0.0 75.0 0.0 -104.397 83.5562 -97.7721 2.7662 10.5146 7.97353 -4.75571 -0.499495 2.21396 5.21889 4.69608 1.32252 -4.99241 -36.9999 0.530545 -0.0 0.0 0.0 -0.0 0.0 0.0 0.0 0.0 0.0 0.0 0.0 0.0 0.0 0.0 0.0 -1.2023 -29.2578 -4.52512 -3.88607e-10 -2.36673e-09 -2.41296e-09 -6.17666e-10 -4.10639e-09 -4.17984e-09 -3.88596e-10 -2.36673e-09 -2.41296e-09 7.73091 5.47488 0.417314 -3.88609e-10 -2.36672e-09 -2.41294e-09 2.90554 0.965183 0.102902 -3.88608e-10 -2.36674e-09 -2.41296e-09 10.2786 0.731801 0.0259123 -3.88617e-10 -2.36673e-09 -2.41295e-09 2.22167 -0.733487 -0.20892 1.41993e-14 -3.03204e-14 1.35826e-14 -79.296 19.0488 -2.7983 12.1461 -5.55192 -21.8923 0.243318 -14.1713 2.03149 -1.76767e-10 2.33887e-10 1.65195e-10 -3.09444e-10 4.05811e-10 2.85757e-10 -1.76767e-10 2.33888e-10 1.65203e-10 -7.73091 5.47488 -0.417314 -1.76765e-10 2.33889e-10 1.65201e-10 -2.90554 0.965183 -0.102902 -1.76773e-10 2.3389e-10 1.65199e-10 -10.2786 0.731801 -0.0259123 -1.76764e-10 2.33891e-10 1.65199e-10 -2.22167 -0.733487 0.20892 -2.03217e-16 0.0 -3.88251e-19 11.4236 5.68496 -2.81774 -0.962946 59.8298 1.71869 -5.2975 -2.72972 -25.0909 2.03217e-16 0.0 3.88251e-19 -2.73019 -40.0105 -13.6836 0.336077 34.0943 -0.0160111 1.83019 -11.85 5.57126
0.0 75.0 0.0 -97.4521 84.6422 -91.4613 0.620907 11.1623 7.93399 -4.41862 -0.79435 2.11572 5.15902 5.07147 1.36494 -4.46428 -37.2472 0.825674 -0.0 0.0 0.0 -0.0 0.0 0.0 0.0 0.0 0.0 0.0 0.0 0.0 0.0 0.0 0.0 -1.04718 -27.7416 -4.23892 -5.69122e-10 -2.63002e-09 -2.69784e-09 -9.25338e-10 -4.56544e-09 -4.67556e-09 -5.69108e-10 -2.63002e-09 -2.69784e-09 7.73091 5.47488 0.417314 -5.69124e-10 -2.63001e-09 -2.69781e-09 2.90554 0.965183 0.102902 -5.69124e-10 -2.63002e-09 -2.69784e-09 10.2786 0.731801 0.0259123 -5.69132e-10 -2.63002e-09 -2.69783e-09 2.22167 -0.733487 -0.20892 3.81083e-14 -9.24773e-14 6.68142e-15 -79.2517 19.3822 -2.746 12.3202 -5.67573 -22.2312 0.309216 -15.6275 2.25302 -7.70203e-11 5.48002e-10 5.21678e-10 -1.41126e-10 9.49688e-10 9.03748e-10 -7.70191e-11 5.48002e-10 5.21684e-10 -7.73091 5.47488 -0.417314 -7.70174e-11 5.48005e-10 5.21684e-10 -2.90554 0.965183 -0.102902 -7.70256e-11 5.48006e-10 5.21682e-10 -10.2786 0.731801 -0.0259123 -7.70167e-11 5.48007e-10 5.21684e-10 -2.22167 -0.733487 0.20892 -2.03217e-16 0.0 -3.88251e-19 8.58401 1.38688 -3.67918 -1.69114 68.0011 2.4394 -5.5464 -3.56688 -23.3225 2.03217e-16 0.0 3.88251e-19 -4.11794 -38.7239 -12.3423 0.375573 36.8127 0.0757547 1.26933 -10.5888 3.9522
0.0 75.0 0.0 -94.807 85.8461 -89.0328 -2.21133 11.8416 7.80856 -3.99598 -1.24414 1.97332 4.9914 5.58667 1.35264 -3.66511 -37.9813 1.14766 -0.0 0.0 0.0 -0.0 0.0 0.0 0.0 0.0 0.0 0.0 0.0 0.0 0.0 0.0 0.0 -0.736341 -24.332 -3.62487 -4.53141e-10 -2.17619e-09 -2.57232e-09 -7.30627e-10 -3.78024e-09 -4.45682e-09 -4.53124e-10 -2.17619e-09 -2.57233e-09 7.73091 5.47488 0.417314 -4.53142e-10 -2.17618e-09 -2.5723e-09 2.90554 0.965183 0.102902 -4.53141e-10 -2.17619e-09 -2.57232e-09 10.2786 0.731801 0.0259123 -4.53148e-10 -2.17619e-09 -2.57231e-09 2.22167 -0.733487 -0.20892 5.06773e-14 -1.27227e-13 1.14301e-15 -79.1897 19.7726 -2.71307 12.4953 -5.80199 -22.5725 0.336545 -16.1592 2.33514 1.17523e-10 3.42541e-10 6.07673e-10 1.94655e-10 5.95369e-10 1.05259e-09 1.17524e-10 3.42541e-10 6.07678e-10 -7.73091 5.47488 -0.417314 1.17526e-10 3.42545e-10 6.07679e-10 -2.90554 0.965183 -0.102902 1.17518e-10 3.42545e-10 6.07677e-10 -10.2786 0.731801 -0.0259123 1.17527e-10 3.42546e-10 6.07679e-10 -2.22167 -0.733487 0.20892 -2.03217e-16 0.0 -3.88251e-19 5.07363 -3.85513 -4.43871 -3.13469 75.44 3.83203 -5.32824 -3.53413 -21.6814 2.03217e-16 0.0 3.88251e-19 -6.46415 -37.2052 -11.7924 0.429968 39.8072 0.073255 1.07028 -11.7865 3.07587
0.0 75.0 0.0 -149.471 89.5163 -144.088 -5.64674 12.5771 7.60581 -3.48235 -1.81729 1.79086 4.76139 6.23094 1.31995 -2.70259 -39.0756 1.51869 -0.0 0.0 0.0 -0.0 0.0 0.0 0.0 0.0 0.0 0.0 0.0 0.0 0.0 0.0 0.0 -0.423968 -19.5636 -2.83808 -1.47235e-10 -1.23243e-09 -2.15116e-09 -2.15096e-10 -2.1452e-09 -3.72381e-09 -1.47217e-10 -1.23243e-09 -2.15118e-09 7.73091 5.47488 0.417314 -1.47236e-10 -1.23242e-09 -2.15115e-09 2.90554 0.965183 0.102902 -1.47233e-10 -1.23243e-09 -2.15116e-09 10.2786 0.731801 0.0259123 -1.47238e-10 -1.23243e-09 -2.15115e-09 2.22167 -0.733487 -0.20892 4.72471e-14 -1.21501e-13 -2.69408e-15 -79.1036 20.2556 -2.7044 12.6744 -5.93322 -22.9222 0.341502 -16.2432 2.34829 3.92295e-10 -1.79725e-10 5.60334e-10 6.71034e-10 -3.06541e-10 9.70115e-10 3.92296e-10 -1.79726e-10 5.60338e-10 -7.73091 5.47488 -0.417314 3.92298e-10 -1.79722e-10 5.6034e-10 -2.90554 0.965183 -0.102902 3.92291e-10 -1.79722e-10 5.60337e-10 -10.2786 0.731801 -0.0259123 3.92302e-10 -1.79721e-10 5.60337e-10 -2.22167 -0.733487 0.20892 -2.03217e-16 0.0 -3.88251e-19 0.878582 -10.024 -5.11914 -7.35376 82.6585 7.97074 -4.79666 -2.88379 -19.8456 2.03217e-16 0.0 3.88251e-19 -9.53728 -35.5002 -11.6074 0.509757 43.3912 -0.00295467 1.0044 -14.5512 2.56453
0.0 75.0 0.0 -62.7474 92.1334 -58.0687 -8.85099 13.1803 7.23414 -2.9488 -2.35255 1.5747 4.56992 6.84276 1.31747 -1.92204 -40.0949 1.88379 -0.0 0.0 0.0 -0.0 0.0 0.0 0.0 0.0 0.0 0.0 0.0 0.0 0.0 0.0 0.0 -0.25545 -15.2082 -2.17723 1.25806e-10 -2.53202e-10 -1.73741e-09 2.44049e-10 -4.48404e-10 -3.00412e-09 1.25824e-10 -2.53212e-10 -1.73744e-09 7.73091 5.47488 0.417314 1.25806e-10 -2.532e-10 -1.73741e-09 2.90554 0.965183 0.102902 1.25811e-10 -2.53203e-10 -1.73741e-09 10.2786 0.731801 0.0259123 1.25807e-10 -2.53202e-10 -1.7374e-09 2.22167 -0.733487 -0.20892 3.37013e-14 -9.07524e-14 -5.71195e-15 -78.9961 20.8141 -2.71272 12.86 -6.07083 -23.2862 0.326931 -15.9496 2.30303 6.09576e-10 -7.33747e-10 5.7018e-10 1.04798e-09 -1.26394e-09 9.86113e-10 6.09575e-10 -7.33749e-10 5.70183e-10 -7.73091 5.47488 -0.417314 6.09579e-10 -7.33745e-10 5.70185e-10 -2.90554 0.965183 -0.102902 6.09573e-10 -7.33746e-10 5.70182e-10 -10.2786 0.731801 -0.0259123 6.09583e-10 -7.33744e-10 5.70179e-10 -2.22167 -0.733487 0.20892 -2.03217e-16 0.0 -3.88251e-19 -3.11614 -16.4022 -5.69257 -42.8981 88.457 43.4371 -4.30385 -2.21406 -18.2365 2.03217e-16 0.0 3.88251e-19 -12.4513 -33.3296 -11.5303 0.596297 46.5636 -0.131167 1.03436 -17.6148 2.37457
0.0 75.0 0.0 -68.1525 92.2259 -63.3282 -10.9924 13.4614 6.60153 -2.46385 -2.68854 1.3311 4.51585 7.26057 1.39589 -1.68772 -40.6052 2.17521 -0.0 0.0 0.0 -0.0 0.0 0.0 0.0 0.0 0.0 0.0 0.0 0.0 0.0 0.0 0.0 -0.213455 -13.0476 -1.86642 1.43193e-10 3.07019e-10 -1.63415e-09 2.69604e-10 5.22056e-10 -2.82538e-09 1.43212e-10 3.07008e-10 -1.63418e-09 7.73091 5.47488 0.417314 1.43194e-10 3.07018e-10 -1.63415e-09 2.90554 0.965183 0.102902 1.432e-10 3.07019e-10 -1.63415e-09 10.2786 0.731801 0.0259123 1.43197e-10 3.07019e-10 -1.63414e-09 2.22167 -0.733487 -0.20892 1.61104e-14 -5.27981e-14 -8.01079e-15 -78.8781 21.3807 -2.73324 13.0428 -6.20781 -23.6467 0.297935 -15.3486 2.21078 6.31642e-10 -1.03447e-09 8.2773e-10 1.08545e-09 -1.78472e-09 1.43036e-09 6.3164e-10 -1.03448e-09 8.27733e-10 -7.73091 5.47488 -0.417314 6.31645e-10 -1.03447e-09 8.27733e-10 -2.90554 0.965183 -0.102902 6.31639e-10 -1.03447e-09 8.27731e-10 -10.2786 0.731801 -0.0259123 6.31651e-10 -1.03447e-09 8.27727e-10 -2.22167 -0.733487 0.20892 -2.03217e-16 0.0 -3.88251e-19 -5.96671 -22.2792 -6.08852 -159.61 86.7983 160.109 -4.117 -2.15574 -17.2635 2.03217e-16 0.0 3.88251e-19 -14.3599 -30.4088 -11.3379 0.650356 48.3234 -0.275823 1.15811 -19.7074 2.46273
0.0 75.0 0.0 -28.566 91.7491 -23.462 -11.6977 13.2592 5.61038 -2.05517 -2.76772 1.04792 4.68843 7.42598 1.5765 -2.33956 -40.3723 2.28225 -0.0 0.0 0.0 -0.0 0.0 0.0 0.0 0.0 0.0 0.0 0.0 0.0 0.0 0.0 0.0 -0.244859 -14.1094 -2.02336 -2.82558e-10 2.31482e-10 -2.08754e-09 -4.56573e-10 3.9002e-10 -3.61628e-09 -2.82542e-10 2.31473e-10 -2.08757e-09 7.73091 5.47488 0.417314 -2.82556e-10 2.31481e-10 -2.08755e-09 2.90554 0.965183 0.102902 -2.8255e-10 2.31484e-10 -2.08754e-09 10.2786 0.731801 0.0259123 -2.82554e-10 2.31484e-10 -2.08754e-09 2.22167 -0.733487 -0.20892 5.44884e-16 -2.54526e-14 -9.69075e-15 -78.7611 21.8877 -2.76097 13.214 -6.33736 -23.9856 0.244828 -14.1384 2.02719 3.40604e-10 -9.59785e-10 1.59361e-09 5.77906e-10 -1.65882e-09 2.75346e-09 3.406e-10 -9.59786e-10 1.59361e-09 -7.73091 5.47488 -0.417314 3.40606e-10 -9.59784e-10 1.59361e-09 -2.90554 0.965183 -0.102902 3.406e-10 -9.59784e-10 1.59361e-09 -10.2786 0.731801 -0.0259123 3.40612e-10 -9.59783e-10 1.59361e-09 -2.22167 -0.733487 0.20892 -2.03217e-16 0.0 -3.88251e-19 -7.11913 -27.8954 -6.28823 -167.002 84.9209 167.524 -4.32991 -2.9309 -17.2398 2.03217e-16 0.0 3.88251e-19 -14.9594 -26.454 -10.9889 0.629288 48.2289 -0.437162 1.53597 -20.8929 3.08951
0.0 75.0 0.0 -25.9376 91.7434 -20.8972 -11.4863 12.7049 4.33959 -1.67984 -2.68085 0.726457 5.01403 7.43016 1.82956 -3.61181 -39.6681 2.26594 -0.0 0.0 0.0 -0.0 0.0 0.0 0.0 0.0 0.0 0.0 0.0 0.0 0.0 0.0 0.0 -0.355166 -17.2611 -2.49566 -9.89935e-10 -2.05576e-10 -2.88085e-09 -1.66079e-09 -3.68863e-10 -4.99944e-09 -9.89923e-10 -2.05581e-10 -2.88087e-09 7.73091 5.47488 0.417314 -9.89933e-10 -2.05575e-10 -2.88085e-09 2.90554 0.965183 0.102902 -9.89927e-10 -2.05573e-10 -2.88085e-09 10.2786 0.731801 0.0259123 -9.89932e-10 -2.05572e-10 -2.88084e-09 2.22167 -0.733487 -0.20892 -1.20333e-14 -1.04919e-14 -9.99398e-15 -78.6636 22.2907 -2.78887 13.3773 -6.46281 -24.3094 0.181762 -12.3879 1.76664 -1.63033e-10 -6.77075e-10 2.69627e-09 -2.99457e-10 -1.17498e-09 4.65862e-09 -1.63039e-10 -6.77075e-10 2.69628e-09 -7.73091 5.47488 -0.417314 -1.63032e-10 -6.77074e-10 2.69627e-09 -2.90554 0.965183 -0.102902 -1.63038e-10 -6.77075e-10 2.69627e-09 -10.2786 0.731801 -0.0259123 -1.63027e-10 -6.77073e-10 2.69627e-09 -2.22167 -0.733487 0.20892 -2.03217e-16 0.0 -3.88251e-19 -7.06753 -33.4982 -6.3033 -167.548 84.7016 168.137 -4.79881 -4.18552 -17.8854 2.03217e-16 0.0 3.88251e-19 -14.7635 -21.6838 -10.6577 0.544608 46.8722 -0.616352 2.16886 -21.7067 4.20125
